<svg width="1920" height="7386" viewBox="0 0 1920 7386" fill="none" xmlns="http://www.w3.org/2000/svg">
<mask id="mask0_4321_47069" style="mask-type:alpha" maskUnits="userSpaceOnUse" x="0" y="0" width="1920" height="3404">
<rect width="1920" height="3403.06" fill="white"/>
</mask>
<g mask="url(#mask0_4321_47069)">
<g filter="url(#filter0_f_4321_47069)">
<ellipse cx="407.485" cy="464.344" rx="407.485" ry="464.344" transform="matrix(0.806472 0.591272 -0.740716 0.671818 1604.89 -282)" fill="url(#paint0_linear_4321_47069)" fill-opacity="0.3"/>
</g>
<g filter="url(#filter1_f_4321_47069)">
<path d="M556.51 516.484C375.101 681.019 69.7049 698.315 -125.612 555.117C-320.929 411.918 -332.204 162.451 -150.795 -2.08362C30.6131 -166.618 336.009 -183.915 531.326 -40.7163C726.643 102.482 737.918 351.949 556.51 516.484Z" fill="url(#paint1_linear_4321_47069)" fill-opacity="0.3"/>
</g>
</g>
<mask id="mask1_4321_47069" style="mask-type:alpha" maskUnits="userSpaceOnUse" x="0" y="4005" width="1920" height="3381">
<rect width="1920" height="3381" transform="matrix(1 0 0 -1 0 7386)" fill="white"/>
</mask>
<g mask="url(#mask1_4321_47069)">
<g filter="url(#filter2_f_4321_47069)">
<ellipse cx="406.564" cy="462.988" rx="406.564" ry="462.988" transform="matrix(0.8083 -0.588771 -0.742886 -0.669418 1670 5108.74)" fill="url(#paint2_linear_4321_47069)" fill-opacity="0.3"/>
</g>
<g filter="url(#filter3_f_4321_47069)">
<ellipse cx="406.564" cy="462.988" rx="406.564" ry="462.988" transform="matrix(0.8083 -0.588771 -0.742886 -0.669418 1834.89 6838.23)" fill="url(#paint3_linear_4321_47069)" fill-opacity="0.3"/>
</g>
<g filter="url(#filter4_f_4321_47069)">
<path d="M-98.6948 5079.85C-156.759 5359.36 -69.5975 5745.87 95.9867 5943.14C261.571 6140.41 442.874 6073.74 500.939 5794.23C559.003 5514.72 471.841 5128.21 306.257 4930.94C140.673 4733.67 -40.6302 4800.34 -98.6948 5079.85Z" fill="url(#paint4_linear_4321_47069)" fill-opacity="0.3"/>
</g>
</g>
<mask id="mask2_4321_47069" style="mask-type:alpha" maskUnits="userSpaceOnUse" x="0" y="1368" width="1920" height="5918">
<rect y="1368.78" width="1920" height="5917.22" fill="white"/>
</mask>
<g mask="url(#mask2_4321_47069)">
<g filter="url(#filter5_f_4321_47069)">
<path d="M194.45 4087.92C119.317 4348.89 0.11448 4396.77 -71.7955 4194.87C-143.705 3992.96 -141.092 3617.73 -65.9586 3356.75C9.17497 3095.78 128.377 3047.9 200.287 3249.8C272.197 3451.71 269.584 3826.95 194.45 4087.92Z" fill="url(#paint5_linear_4321_47069)" fill-opacity="0.3"/>
</g>
<g filter="url(#filter6_f_4321_47069)">
<ellipse cx="300.168" cy="380.992" rx="300.168" ry="380.992" transform="matrix(0.335513 0.942035 -0.276662 0.960967 1824.81 2146.98)" fill="url(#paint6_linear_4321_47069)" fill-opacity="0.3"/>
</g>
</g>
<mask id="mask3_4321_47069" style="mask-type:alpha" maskUnits="userSpaceOnUse" x="0" y="1030" width="1920" height="6260">
<rect y="1030" width="1920" height="6260" fill="white"/>
</mask>
<g mask="url(#mask3_4321_47069)">
<g filter="url(#filter7_f_4321_47069)">
<path d="M202.462 2284.92C141.681 2508.27 34.1145 2516.17 -37.7955 2302.57C-109.705 2088.97 -118.728 1734.75 -57.9471 1511.41C2.83339 1288.06 110.4 1280.16 182.31 1493.76C254.22 1707.36 263.242 2061.58 202.462 2284.92Z" fill="url(#paint7_linear_4321_47069)" fill-opacity="0.5"/>
</g>
<g filter="url(#filter8_f_4321_47069)">
<path d="M194.45 3906.65C119.317 4182.74 0.114451 4233.4 -71.7955 4019.8C-143.705 3806.2 -141.092 3409.22 -65.9586 3133.13C9.17497 2857.05 128.377 2806.39 200.287 3019.99C272.197 3233.59 269.584 3630.56 194.45 3906.65Z" fill="url(#paint8_linear_4321_47069)" fill-opacity="0.3"/>
</g>
<g filter="url(#filter9_f_4321_47069)">
<ellipse cx="315.647" cy="401.416" rx="315.647" ry="401.416" transform="matrix(0.31906 0.947735 -0.262585 0.964909 1824.81 1853.28)" fill="url(#paint9_linear_4321_47069)" fill-opacity="0.3"/>
</g>
</g>
<defs>
<filter id="filter0_f_4321_47069" x="813.868" y="-423.294" width="1551.41" height="1388.37" filterUnits="userSpaceOnUse" color-interpolation-filters="sRGB">
<feFlood flood-opacity="0" result="BackgroundImageFix"/>
<feBlend mode="normal" in="SourceGraphic" in2="BackgroundImageFix" result="shape"/>
<feGaussianBlur stdDeviation="150" result="effect1_foregroundBlur_4321_47069"/>
</filter>
<filter id="filter1_f_4321_47069" x="-579.806" y="-437.752" width="1565.33" height="1389.9" filterUnits="userSpaceOnUse" color-interpolation-filters="sRGB">
<feFlood flood-opacity="0" result="BackgroundImageFix"/>
<feBlend mode="normal" in="SourceGraphic" in2="BackgroundImageFix" result="shape"/>
<feGaussianBlur stdDeviation="150" result="effect1_foregroundBlur_4321_47069"/>
</filter>
<filter id="filter2_f_4321_47069" x="878.973" y="3867.81" width="1551.41" height="1383.26" filterUnits="userSpaceOnUse" color-interpolation-filters="sRGB">
<feFlood flood-opacity="0" result="BackgroundImageFix"/>
<feBlend mode="normal" in="SourceGraphic" in2="BackgroundImageFix" result="shape"/>
<feGaussianBlur stdDeviation="150" result="effect1_foregroundBlur_4321_47069"/>
</filter>
<filter id="filter3_f_4321_47069" x="1043.87" y="5597.3" width="1551.41" height="1383.26" filterUnits="userSpaceOnUse" color-interpolation-filters="sRGB">
<feFlood flood-opacity="0" result="BackgroundImageFix"/>
<feBlend mode="normal" in="SourceGraphic" in2="BackgroundImageFix" result="shape"/>
<feGaussianBlur stdDeviation="150" result="effect1_foregroundBlur_4321_47069"/>
</filter>
<filter id="filter4_f_4321_47069" x="-416.681" y="4517.53" width="1235.6" height="1839.01" filterUnits="userSpaceOnUse" color-interpolation-filters="sRGB">
<feFlood flood-opacity="0" result="BackgroundImageFix"/>
<feBlend mode="normal" in="SourceGraphic" in2="BackgroundImageFix" result="shape"/>
<feGaussianBlur stdDeviation="150" result="effect1_foregroundBlur_4321_47069"/>
</filter>
<filter id="filter5_f_4321_47069" x="-424.064" y="2824.87" width="976.62" height="1794.94" filterUnits="userSpaceOnUse" color-interpolation-filters="sRGB">
<feFlood flood-opacity="0" result="BackgroundImageFix"/>
<feBlend mode="normal" in="SourceGraphic" in2="BackgroundImageFix" result="shape"/>
<feGaussianBlur stdDeviation="150" result="effect1_foregroundBlur_4321_47069"/>
</filter>
<filter id="filter6_f_4321_47069" x="1374.33" y="2033.24" width="891.568" height="1525.25" filterUnits="userSpaceOnUse" color-interpolation-filters="sRGB">
<feFlood flood-opacity="0" result="BackgroundImageFix"/>
<feBlend mode="normal" in="SourceGraphic" in2="BackgroundImageFix" result="shape"/>
<feGaussianBlur stdDeviation="150" result="effect1_foregroundBlur_4321_47069"/>
</filter>
<filter id="filter7_f_4321_47069" x="-398.23" y="1038.59" width="940.976" height="1719.16" filterUnits="userSpaceOnUse" color-interpolation-filters="sRGB">
<feFlood flood-opacity="0" result="BackgroundImageFix"/>
<feBlend mode="normal" in="SourceGraphic" in2="BackgroundImageFix" result="shape"/>
<feGaussianBlur stdDeviation="150" result="effect1_foregroundBlur_4321_47069"/>
</filter>
<filter id="filter8_f_4321_47069" x="-424.064" y="2587.81" width="976.62" height="1864.16" filterUnits="userSpaceOnUse" color-interpolation-filters="sRGB">
<feFlood flood-opacity="0" result="BackgroundImageFix"/>
<feBlend mode="normal" in="SourceGraphic" in2="BackgroundImageFix" result="shape"/>
<feGaussianBlur stdDeviation="150" result="effect1_foregroundBlur_4321_47069"/>
</filter>
<filter id="filter9_f_4321_47069" x="1374.33" y="1750.33" width="891.568" height="1578.85" filterUnits="userSpaceOnUse" color-interpolation-filters="sRGB">
<feFlood flood-opacity="0" result="BackgroundImageFix"/>
<feBlend mode="normal" in="SourceGraphic" in2="BackgroundImageFix" result="shape"/>
<feGaussianBlur stdDeviation="150" result="effect1_foregroundBlur_4321_47069"/>
</filter>
<linearGradient id="paint0_linear_4321_47069" x1="407.485" y1="0" x2="407.485" y2="928.688" gradientUnits="userSpaceOnUse">
<stop stop-color="#2FBDFF"/>
<stop offset="1" stop-color="#FF7582"/>
</linearGradient>
<linearGradient id="paint1_linear_4321_47069" x1="531.326" y1="-40.7163" x2="17.539" y2="660.069" gradientUnits="userSpaceOnUse">
<stop stop-color="#2FBDFF"/>
<stop offset="1" stop-color="#FF7582"/>
</linearGradient>
<linearGradient id="paint2_linear_4321_47069" x1="406.564" y1="0" x2="406.564" y2="925.976" gradientUnits="userSpaceOnUse">
<stop stop-color="#2FBDFF"/>
<stop offset="1" stop-color="#FF7582"/>
</linearGradient>
<linearGradient id="paint3_linear_4321_47069" x1="406.564" y1="0" x2="406.564" y2="925.976" gradientUnits="userSpaceOnUse">
<stop stop-color="#2FBDFF"/>
<stop offset="1" stop-color="#FF7582"/>
</linearGradient>
<linearGradient id="paint4_linear_4321_47069" x1="306.257" y1="4930.94" x2="-315.542" y2="5452.86" gradientUnits="userSpaceOnUse">
<stop stop-color="#2FBDFF"/>
<stop offset="1" stop-color="#FF7582"/>
</linearGradient>
<linearGradient id="paint5_linear_4321_47069" x1="200.287" y1="3249.8" x2="-339.868" y2="3442.19" gradientUnits="userSpaceOnUse">
<stop stop-color="#2FBDFF"/>
<stop offset="1" stop-color="#FF7582"/>
</linearGradient>
<linearGradient id="paint6_linear_4321_47069" x1="300.168" y1="0" x2="300.168" y2="761.984" gradientUnits="userSpaceOnUse">
<stop stop-color="#2FBDFF"/>
<stop offset="1" stop-color="#FF7582"/>
</linearGradient>
<linearGradient id="paint7_linear_4321_47069" x1="182.31" y1="1493.76" x2="-259.96" y2="1642.65" gradientUnits="userSpaceOnUse">
<stop stop-color="#2FBDFF"/>
<stop offset="1" stop-color="#FF7582"/>
</linearGradient>
<linearGradient id="paint8_linear_4321_47069" x1="200.287" y1="3019.99" x2="-346.424" y2="3204.04" gradientUnits="userSpaceOnUse">
<stop stop-color="#2FBDFF"/>
<stop offset="1" stop-color="#FF7582"/>
</linearGradient>
<linearGradient id="paint9_linear_4321_47069" x1="315.647" y1="0" x2="315.647" y2="802.832" gradientUnits="userSpaceOnUse">
<stop stop-color="#2FBDFF"/>
<stop offset="1" stop-color="#FF7582"/>
</linearGradient>
</defs>
</svg>
